<?xml version="1.0"?>
<svg xmlns="http://www.w3.org/2000/svg" width="142.505" height="52.113" viewBox="0 0 142.505 52.113">
    <defs>
        <style>
            .cls-1{fill:#a4e22d}.cls-2{fill:#ff5a24}.cls-3{fill:#fff}
        </style>
    </defs>
    <g id="Group_35361" data-name="Group 35361" transform="translate(-531.074 219.034)">
        <g id="Group_35357" data-name="Group 35357" transform="translate(531.074 -219.034)">
            <path id="Path_86284" d="M561.512-209.963l.01.008 6.909 6.942 6.87-6.9a7.673 7.673 0 0 0 1.2-1.574 6.55 6.55 0 0 0 .8-2.3 20.665 20.665 0 0 0-13.787-5.245 20.7 20.7 0 0 0-4.144.414v3.531a6.96 6.96 0 0 0 .812 3.372 7.562 7.562 0 0 0 1.33 1.752z" class="cls-1" data-name="Path 86284" transform="translate(-542.761 219.034)"/>
            <path id="Path_86285" d="M588.874-204.046a10.5 10.5 0 0 1-.995 1.7 11.716 11.716 0 0 1-1.27 1.51l-.007.006-6.9 6.874 6.942 6.921a11.358 11.358 0 0 1 1.228 1.466 10.818 10.818 0 0 1 1.807 4.213 20.653 20.653 0 0 0 2.987-10.733 20.668 20.668 0 0 0-3.792-11.957z" class="cls-2" data-name="Path 86285" transform="translate(-551.158 212.844)"/>
            <path id="Path_86286" d="M546.894-205.816a11.968 11.968 0 0 1-1.477-1.8 11.067 11.067 0 0 1-1.837-6.266v-2.247a20.746 20.746 0 0 0-12.506 19.05 20.752 20.752 0 0 0 12.506 19.048v-5.92a11 11 0 0 1 1.868-6.3A11.593 11.593 0 0 1 546.9-192l6.906-6.94z" class="cls-2" data-name="Path 86286" transform="translate(-531.074 217.832)"/>
            <path id="Path_86287" d="M575.306-175.1l-6.86-6.876-6.933 6.906a7.507 7.507 0 0 0-1.33 1.789 7.257 7.257 0 0 0-.812 3.436v7.215a20.886 20.886 0 0 0 4.144.411 20.641 20.641 0 0 0 9.7-2.4 20.556 20.556 0 0 0 4.185-2.928l.055-2.285a7.416 7.416 0 0 0-.937-3.653 8.064 8.064 0 0 0-1.212-1.615z" class="cls-2" data-name="Path 86287" transform="translate(-542.761 203.727)"/>
        </g>
        <g id="Group_35358" data-name="Group 35358" transform="translate(585.295 -211.06)">
            <path id="Path_86288" d="M670.117-192.807l4.128-4.067a6.812 6.812 0 0 0 2.049-4.981v-3.6h-4.112v3.6a2.762 2.762 0 0 1-.849 2.074l-4.1 4.081-4.211-4.232-.013-.016a2.689 2.689 0 0 1-.861-2.043v-3.46h-4.113v3.467a6.806 6.806 0 0 0 2.054 4.984l4.206 4.2-4.23 4.286a6.773 6.773 0 0 0-2.065 4.967v3.662h4.113v-3.663a2.873 2.873 0 0 1 .86-2.114l4.25-4.265 4.114 4.129a2.9 2.9 0 0 1 .862 2.128v3.785h4.112v-3.785a6.858 6.858 0 0 0-2.031-4.989z" class="cls-3" data-name="Path 86288" transform="translate(-637.717 205.45)"/>
            <path id="Path_86289" d="M696.21-205.45v4.076h7.09v21.489h4.113v-21.489h7.156v-4.076z" class="cls-3" data-name="Path 86289" transform="translate(-653.498 205.45)"/>
            <path id="Path_86290" d="M757.592-205.45h-5.3l-6.248 12.629-6.228-12.629h-5.323v25.565h4.074V-198.8l6.006 11.765h2.956l5.994-11.765v18.914h4.072z" class="cls-3" data-name="Path 86290" transform="translate(-669.308 205.45)"/>
            <path id="Path_86291" d="M630.683-201.383h8.963v-4.067h-8.756a7.445 7.445 0 0 0-7.445 7.45v18.117h4.114v-10.879h9.9v-4.074h-9.9v-3.424a3.339 3.339 0 0 1 3.124-3.123z" class="cls-3" data-name="Path 86291" transform="translate(-623.445 205.45)"/>
        </g>
        <g id="Group_35359" data-name="Group 35359" transform="translate(585.953 -179.194)">
            <path id="Path_86292" d="M624.567-145.6c0-2.887 1.831-4.6 4.179-4.6a3.629 3.629 0 0 1 2.667 1.118l-.837 1.01a2.386 2.386 0 0 0-1.781-.767c-1.566 0-2.619 1.215-2.619 3.2 0 2.013.933 3.234 2.7 3.234a1.98 1.98 0 0 0 1.258-.389v-1.907h-1.663v-1.285h3.066v3.893a4.012 4.012 0 0 1-2.818 1.048c-2.375-.009-4.152-1.635-4.152-4.555z" class="cls-3" data-name="Path 86292" transform="translate(-624.567 150.768)"/>
            <path id="Path_86293" d="M639.269-150.283a.888.888 0 0 1 .96-.88.888.888 0 0 1 .961.88.9.9 0 0 1-.961.88.9.9 0 0 1-.96-.88zm.178 2.04H641v6.63h-1.555z" class="cls-3" data-name="Path 86293" transform="translate(-630.639 151.163)"/>
            <path id="Path_86294" d="M644.191-146.187h1.577l1.052 3.44c.184.653.378 1.333.562 2h.054c.183-.664.378-1.344.562-2l1.052-3.44h1.5l-2.252 6.63h-1.8z" class="cls-3" data-name="Path 86294" transform="translate(-632.672 149.108)"/>
            <path id="Path_86295" d="M656.1-142.98a3.227 3.227 0 0 1 3.056-3.482c1.792 0 2.737 1.3 2.737 3.147a4.037 4.037 0 0 1-.068.757h-4.209a1.886 1.886 0 0 0 1.955 1.846 2.822 2.822 0 0 0 1.538-.481l.529.967a4.118 4.118 0 0 1-2.273.719 3.2 3.2 0 0 1-3.265-3.473zm4.449-.636c0-1.021-.454-1.642-1.361-1.642a1.665 1.665 0 0 0-1.587 1.642z" class="cls-3" data-name="Path 86295" transform="translate(-637.591 149.221)"/>
            <path id="Path_86296" d="M667.384-140.432l.723-.988a2.922 2.922 0 0 0 1.83.74c.724 0 1.064-.34 1.064-.794 0-.556-.718-.8-1.425-1.074-.869-.327-1.863-.825-1.863-1.933 0-1.15.929-1.981 2.414-1.981a3.575 3.575 0 0 1 2.2.793l-.713.956a2.475 2.475 0 0 0-1.453-.578c-.667 0-.983.319-.983.734 0 .524.67.723 1.388.988.9.335 1.9.767 1.9 2 0 1.139-.9 2.058-2.576 2.058a4.146 4.146 0 0 1-2.506-.921z" class="cls-3" data-name="Path 86296" transform="translate(-642.251 149.221)"/>
            <path id="Path_86297" d="M682.012-136.971l.286-1.2a1.838 1.838 0 0 0 .475.092 1.4 1.4 0 0 0 1.323-1.14l.124-.415-2.608-6.55h1.577l1.145 3.25c.2.588.389 1.242.583 1.874h.054c.167-.616.335-1.268.507-1.874l.988-3.25h1.5l-2.4 6.933c-.551 1.493-1.247 2.419-2.694 2.419a2.569 2.569 0 0 1-.86-.139z" class="cls-3" data-name="Path 86297" transform="translate(-648.127 149.108)"/>
            <path id="Path_86298" d="M693.522-142.98a3.211 3.211 0 0 1 3.153-3.482 3.212 3.212 0 0 1 3.153 3.482 3.21 3.21 0 0 1-3.153 3.473 3.209 3.209 0 0 1-3.153-3.473zm4.708 0c0-1.328-.583-2.213-1.555-2.213s-1.555.885-1.555 2.213.583 2.2 1.555 2.2 1.555-.872 1.555-2.2z" class="cls-3" data-name="Path 86298" transform="translate(-653.046 149.221)"/>
            <path id="Path_86299" d="M706.764-142.03v-4.157h1.554v3.957c0 1.091.313 1.5 1.031 1.5.583 0 .966-.269 1.469-.917v-4.542h1.555v6.63H711.1l-.119-.977h-.043a2.7 2.7 0 0 1-2.133 1.14c-1.421.002-2.041-.96-2.041-2.634z" class="cls-3" data-name="Path 86299" transform="translate(-658.515 149.108)"/>
            <path id="Path_86300" d="M724.281-146.3h1.274l.119.9h.043a2.851 2.851 0 0 1 2.035-1.066 1.789 1.789 0 0 1 1.831 1.187 3 3 0 0 1 2.132-1.187c1.4 0 2.047.961 2.047 2.634v4.157h-1.556v-3.957c0-1.09-.324-1.5-1.02-1.5a2.045 2.045 0 0 0-1.387.827v4.631h-1.556v-3.957c0-1.09-.323-1.5-1.02-1.5a2.068 2.068 0 0 0-1.388.827v4.631h-1.555z" class="cls-3" data-name="Path 86300" transform="translate(-665.75 149.221)"/>
            <path id="Path_86301" d="M742.925-142.98a3.211 3.211 0 0 1 3.153-3.482 3.212 3.212 0 0 1 3.153 3.482 3.21 3.21 0 0 1-3.153 3.473 3.209 3.209 0 0 1-3.153-3.473zm4.708 0c0-1.328-.583-2.213-1.555-2.213s-1.554.885-1.554 2.213.583 2.2 1.554 2.2 1.555-.872 1.555-2.2z" class="cls-3" data-name="Path 86301" transform="translate(-673.45 149.221)"/>
            <path id="Path_86302" d="M756.3-146.3h1.274l.119 1.182h.043a2.263 2.263 0 0 1 1.884-1.344 1.687 1.687 0 0 1 .75.135l-.269 1.349a2.236 2.236 0 0 0-.68-.107c-.529 0-1.166.361-1.566 1.371v4.043H756.3z" class="cls-3" data-name="Path 86302" transform="translate(-678.973 149.221)"/>
            <path id="Path_86303" d="M763.9-142.98a3.227 3.227 0 0 1 3.056-3.482c1.793 0 2.738 1.3 2.738 3.147a3.973 3.973 0 0 1-.068.757h-4.209a1.886 1.886 0 0 0 1.955 1.846 2.825 2.825 0 0 0 1.539-.481l.529.967a4.119 4.119 0 0 1-2.273.719 3.2 3.2 0 0 1-3.267-3.473zm4.449-.636c0-1.021-.454-1.642-1.361-1.642a1.664 1.664 0 0 0-1.587 1.642z" class="cls-3" data-name="Path 86303" transform="translate(-682.113 149.221)"/>
        </g>
    </g>
</svg>
